<?xml version="1.0" encoding="utf-8"?>
<COLLADA xmlns="http://www.collada.org/2005/11/COLLADASchema" version="1.4.1" xmlns:xsi="http://www.w3.org/2001/XMLSchema-instance">
  <asset>
    <contributor>
      <author>Blender User</author>
      <authoring_tool>Blender 4.5.3 LTS commit date:2025-09-08, commit time:12:46, hash:67807e1800cc</authoring_tool>
    </contributor>
    <created>2025-09-23T15:44:31</created>
    <modified>2025-09-23T15:44:31</modified>
    <unit name="meter" meter="1"/>
    <up_axis>Z_UP</up_axis>
  </asset>
  <library_cameras>
    <camera id="Camera-camera" name="Camera">
      <optics>
        <technique_common>
          <perspective>
            <xfov sid="xfov">39.59775</xfov>
            <aspect_ratio>1.777778</aspect_ratio>
            <znear sid="znear">0.1</znear>
            <zfar sid="zfar">100</zfar>
          </perspective>
        </technique_common>
      </optics>
      <extra>
        <technique profile="blender">
          <shiftx sid="shiftx" type="float">0</shiftx>
          <shifty sid="shifty" type="float">0</shifty>
          <dof_distance sid="dof_distance" type="float">10</dof_distance>
        </technique>
      </extra>
    </camera>
  </library_cameras>
  <library_lights>
    <light id="Light-light" name="Light">
      <technique_common>
        <point>
          <color sid="color">1000 1000 1000</color>
          <constant_attenuation>1</constant_attenuation>
          <linear_attenuation>0</linear_attenuation>
          <quadratic_attenuation>0</quadratic_attenuation>
        </point>
      </technique_common>
      <extra>
        <technique profile="blender">
          <type sid="type" type="int">0</type>
          <flag sid="flag" type="int">0</flag>
          <mode sid="mode" type="int">2097153</mode>
          <red sid="red" type="float">1</red>
          <green sid="green" type="float">1</green>
          <blue sid="blue" type="float">1</blue>
          <energy sid="blender_energy" type="float">1000</energy>
          <spotsize sid="spotsize" type="float">75</spotsize>
          <spotblend sid="spotblend" type="float">0.15</spotblend>
          <clipsta sid="clipsta" type="float">0.04999995</clipsta>
          <clipend sid="clipend" type="float">40</clipend>
          <radius sid="radius" type="float">0.1</radius>
          <area_shape sid="area_shape" type="int">1</area_shape>
          <area_size sid="area_size" type="float">0.1</area_size>
          <area_sizey sid="area_sizey" type="float">0.1</area_sizey>
          <area_sizez sid="area_sizez" type="float">1</area_sizez>
        </technique>
      </extra>
    </light>
  </library_lights>
  <library_effects>
    <effect id="Material_001-effect">
      <profile_COMMON>
        <newparam sid="gate_circular_transparent_png-surface">
          <surface type="2D">
            <init_from>gate_circular_transparent_png</init_from>
          </surface>
        </newparam>
        <newparam sid="gate_circular_transparent_png-sampler">
          <sampler2D>
            <source>gate_circular_transparent_png-surface</source>
          </sampler2D>
        </newparam>
        <technique sid="common">
          <lambert>
            <emission>
              <color sid="emission">0 0 0 1</color>
            </emission>
            <diffuse>
              <texture texture="gate_circular_transparent_png-sampler" texcoord="UVMap"/>
            </diffuse>
            <index_of_refraction>
              <float sid="ior">1.5</float>
            </index_of_refraction>
          </lambert>
        </technique>
      </profile_COMMON>
    </effect>
  </library_effects>
  <library_images>
    <image id="gate_circular_transparent_png" name="gate_circular_transparent_png">
      <init_from>gate_circular_transparent.png</init_from>
    </image>
  </library_images>
  <library_materials>
    <material id="Material_001-material" name="Material.001">
      <instance_effect url="#Material_001-effect"/>
    </material>
  </library_materials>
  <library_geometries>
    <geometry id="Cylinder-mesh" name="Cylinder">
      <mesh>
        <source id="Cylinder-mesh-positions">
          <float_array id="Cylinder-mesh-positions-array" count="384">0 0.8 -1 0 1 -1 0 0.8 1 0 1 1 0.1950903 0.9807853 -1 0.1560722 0.7846282 -1 0.1560722 0.7846282 1 0.1950903 0.9807853 1 0.3826835 0.9238795 -1 0.3061468 0.7391036 -1 0.3826835 0.9238795 1 0.3061468 0.7391036 1 0.5555703 0.8314696 -1 0.4444562 0.6651757 -1 0.5555703 0.8314696 1 0.4444562 0.6651757 1 0.5656855 0.5656855 -1 0.7071068 0.7071068 -1 0.5656855 0.5656855 1 0.7071068 0.7071068 1 0.6651757 0.4444562 -1 0.8314696 0.5555703 -1 0.6651757 0.4444562 1 0.8314696 0.5555703 1 0.9238795 0.3826835 -1 0.7391036 0.3061468 -1 0.9238795 0.3826835 1 0.7391036 0.3061468 1 0.9807853 0.1950903 -1 0.7846282 0.1560722 -1 0.9807853 0.1950903 1 0.7846282 0.1560722 1 1 0 -1 0.8 0 -1 1 0 1 0.8 0 1 0.7846282 -0.1560722 -1 0.9807853 -0.1950903 -1 0.9807853 -0.1950903 1 0.7846282 -0.1560722 1 0.9238795 -0.3826835 -1 0.7391036 -0.3061468 -1 0.9238795 -0.3826835 1 0.7391036 -0.3061468 1 0.6651757 -0.4444562 -1 0.8314696 -0.5555703 -1 0.8314696 -0.5555703 1 0.6651757 -0.4444562 1 0.5656855 -0.5656855 -1 0.7071068 -0.7071068 -1 0.7071068 -0.7071068 1 0.5656855 -0.5656855 1 0.5555703 -0.8314696 -1 0.4444562 -0.6651757 -1 0.4444562 -0.6651757 1 0.5555703 -0.8314696 1 0.3061468 -0.7391036 -1 0.3826835 -0.9238795 -1 0.3061468 -0.7391036 1 0.3826835 -0.9238795 1 0.1560722 -0.7846282 -1 0.1950903 -0.9807853 -1 0.1560722 -0.7846282 1 0.1950903 -0.9807853 1 0 -0.8 -1 0 -1 -1 0 -1 1 0 -0.8 1 -0.1560722 -0.7846282 -1 -0.1950903 -0.9807853 -1 -0.1560722 -0.7846282 1 -0.1950903 -0.9807853 1 -0.3826835 -0.9238795 -1 -0.3061468 -0.7391036 -1 -0.3061468 -0.7391036 1 -0.3826835 -0.9238795 1 -0.4444562 -0.6651757 -1 -0.5555703 -0.8314696 -1 -0.4444562 -0.6651757 1 -0.5555703 -0.8314696 1 -0.7071068 -0.7071068 -1 -0.5656855 -0.5656855 -1 -0.7071068 -0.7071068 1 -0.5656855 -0.5656855 1 -0.8314696 -0.5555703 -1 -0.6651757 -0.4444562 -1 -0.8314696 -0.5555703 1 -0.6651757 -0.4444562 1 -0.7391036 -0.3061468 -1 -0.9238795 -0.3826835 -1 -0.9238795 -0.3826835 1 -0.7391036 -0.3061468 1 -0.7846282 -0.1560722 -1 -0.9807853 -0.1950903 -1 -0.7846282 -0.1560722 1 -0.9807853 -0.1950903 1 -1 0 -1 -0.8 0 -1 -0.8 0 1 -1 0 1 -0.9807853 0.1950903 -1 -0.7846282 0.1560722 -1 -0.7846282 0.1560722 1 -0.9807853 0.1950903 1 -0.7391036 0.3061468 -1 -0.9238795 0.3826835 -1 -0.7391036 0.3061468 1 -0.9238795 0.3826835 1 -0.8314696 0.5555703 -1 -0.6651757 0.4444562 -1 -0.8314696 0.5555703 1 -0.6651757 0.4444562 1 -0.5656855 0.5656855 -1 -0.7071068 0.7071068 -1 -0.5656855 0.5656855 1 -0.7071068 0.7071068 1 -0.5555703 0.8314696 -1 -0.4444562 0.6651757 -1 -0.5555703 0.8314696 1 -0.4444562 0.6651757 1 -0.3061468 0.7391036 -1 -0.3826835 0.9238795 -1 -0.3061468 0.7391036 1 -0.3826835 0.9238795 1 -0.1560722 0.7846282 -1 -0.1950903 0.9807853 -1 -0.1950903 0.9807853 1 -0.1560722 0.7846282 1</float_array>
          <technique_common>
            <accessor source="#Cylinder-mesh-positions-array" count="128" stride="3">
              <param name="X" type="float"/>
              <param name="Y" type="float"/>
              <param name="Z" type="float"/>
            </accessor>
          </technique_common>
        </source>
        <source id="Cylinder-mesh-normals">
          <float_array id="Cylinder-mesh-normals-array" count="768">0.09801727 0.9951847 0 0.2902846 0.9569404 0 0.4713967 0.8819213 0 0.6343933 0.7730104 0 0.7730104 0.6343933 0 0.8819213 0.4713967 0 0.9569404 0.2902846 0 0.9951847 0.09801727 0 0.9951847 -0.09801727 0 0.9569404 -0.2902846 0 0.8819213 -0.4713967 0 0.7730104 -0.6343933 0 0.6343933 -0.7730104 0 0.4713967 -0.8819213 0 0.2902846 -0.9569404 0 0.09801727 -0.9951847 0 -0.09801727 -0.9951847 0 -0.2902846 -0.9569404 0 -0.4713967 -0.8819213 0 -0.6343933 -0.7730104 0 -0.7730104 -0.6343933 0 -0.8819213 -0.4713967 0 -0.9569404 -0.2902846 0 -0.9951847 -0.09801727 0 -0.9951847 0.09801727 0 -0.9569404 0.2902846 0 -0.8819213 0.4713967 0 -0.7730104 0.6343933 0 -0.6343933 0.7730104 0 -0.4713967 0.8819213 0 0 0 1 0 0 1 -0.2902846 0.9569404 0 -0.09801727 0.9951847 0 0 0 -1 0 0 -1 -0.09801727 -0.9951848 0 -0.2902846 -0.9569404 0 -0.4713968 -0.8819212 0 -0.634393 -0.7730106 0 -0.7730106 -0.634393 0 -0.8819212 -0.4713968 0 -0.9569404 -0.2902846 0 -0.9951848 -0.09801727 0 -0.9951848 0.09801727 0 -0.9569404 0.2902846 0 -0.8819212 0.4713968 0 -0.7730106 0.634393 0 -0.634393 0.7730106 0 -0.4713968 0.8819212 0 -0.2902846 0.9569404 0 -0.09801727 0.9951848 0 0.09801727 0.9951848 0 0.2902846 0.9569404 0 0.4713968 0.8819212 0 0.634393 0.7730106 0 0.7730106 0.634393 0 0.8819212 0.4713968 0 0.9569404 0.2902846 0 0.9951848 0.09801727 0 0.9951848 -0.09801727 0 0.9569404 -0.2902846 0 0.8819212 -0.4713968 0 0.7730106 -0.634393 0 0.634393 -0.7730106 0 0.4713968 -0.8819212 0 0.2902846 -0.9569404 0 0.09801727 -0.9951848 0 0.09801727 0.9951847 0 0.2902846 0.9569404 0 0.4713967 0.8819213 0 0.6343933 0.7730104 0 0.7730104 0.6343933 0 0.8819213 0.4713967 0 0.9569404 0.2902846 0 0.9951847 0.09801727 0 0.9951847 -0.09801727 0 0.9569404 -0.2902846 0 0.8819213 -0.4713967 0 0.7730104 -0.6343933 0 0.6343933 -0.7730104 0 0.4713967 -0.8819213 0 0.2902846 -0.9569404 0 0.09801727 -0.9951847 0 -0.09801727 -0.9951847 0 -0.2902846 -0.9569404 0 -0.4713967 -0.8819213 0 -0.6343933 -0.7730104 0 -0.7730104 -0.6343933 0 -0.8819213 -0.4713967 0 -0.9569404 -0.2902846 0 -0.9951847 -0.09801727 0 -0.9951847 0.09801727 0 -0.9569404 0.2902846 0 -0.8819213 0.4713967 0 -0.7730104 0.6343933 0 -0.6343933 0.7730104 0 -0.4713967 0.8819213 0 0 0 1 0 0 1 0 0 1 0 0 1 0 0 1 0 0 1 0 0 1 0 0 1 0 0 1 0 0 1 0 0 1 0 0 1 0 0 1 0 0 1 0 0 1 0 0 1 0 0 1 0 0 1 0 0 1 0 0 1 0 0 1 0 0 1 0 0 1 0 0 1 0 0 1 0 0 1 0 0 1 0 0 1 0 0 1 0 0 1 0 0 1 0 0 1 0 0 1 0 0 1 0 0 1 0 0 1 0 0 1 0 0 1 0 0 1 0 0 1 0 0 1 0 0 1 0 0 1 0 0 1 0 0 1 0 0 1 0 0 1 0 0 1 0 0 1 0 0 1 0 0 1 0 0 1 0 0 1 0 0 1 0 0 1 0 0 1 0 0 1 0 0 1 0 0 1 0 0 1 0 0 1 0 0 1 -0.2902846 0.9569404 0 -0.09801727 0.9951847 0 0 0 -1 0 0 -1 0 0 -1 0 0 -1 0 0 -1 0 0 -1 0 0 -1 0 0 -1 0 0 -1 0 0 -1 0 0 -1 0 0 -1 0 0 -1 0 0 -1 0 0 -1 0 0 -1 0 0 -1 0 0 -1 0 0 -1 0 0 -1 0 0 -1 0 0 -1 0 0 -1 0 0 -1 0 0 -1 0 0 -1 0 0 -1 0 0 -1 0 0 -1 0 0 -1 0 0 -1 0 0 -1 0 0 -1 0 0 -1 0 0 -1 0 0 -1 0 0 -1 0 0 -1 0 0 -1 0 0 -1 0 0 -1 0 0 -1 0 0 -1 0 0 -1 0 0 -1 0 0 -1 0 0 -1 0 0 -1 0 0 -1 0 0 -1 0 0 -1 0 0 -1 0 0 -1 0 0 -1 0 0 -1 0 0 -1 0 0 -1 0 0 -1 0 0 -1 0 0 -1 0 0 -1 0 0 -1 -0.09801727 -0.9951848 0 -0.2902846 -0.9569404 0 -0.4713968 -0.8819212 0 -0.634393 -0.7730106 0 -0.7730106 -0.634393 0 -0.8819212 -0.4713968 0 -0.9569404 -0.2902846 0 -0.9951848 -0.09801727 0 -0.9951848 0.09801727 0 -0.9569404 0.2902846 0 -0.8819212 0.4713968 0 -0.7730106 0.634393 0 -0.634393 0.7730106 0 -0.4713968 0.8819212 0 -0.2902846 0.9569404 0 -0.09801727 0.9951848 0 0.09801727 0.9951848 0 0.2902846 0.9569404 0 0.4713968 0.8819212 0 0.634393 0.7730106 0 0.7730106 0.634393 0 0.8819212 0.4713968 0 0.9569404 0.2902846 0 0.9951848 0.09801727 0 0.9951848 -0.09801727 0 0.9569404 -0.2902846 0 0.8819212 -0.4713968 0 0.7730106 -0.634393 0 0.634393 -0.7730106 0 0.4713968 -0.8819212 0 0.2902846 -0.9569404 0 0.09801727 -0.9951848 0</float_array>
          <technique_common>
            <accessor source="#Cylinder-mesh-normals-array" count="256" stride="3">
              <param name="X" type="float"/>
              <param name="Y" type="float"/>
              <param name="Z" type="float"/>
            </accessor>
          </technique_common>
        </source>
        <source id="Cylinder-mesh-map-0">
          <float_array id="Cylinder-mesh-map-0-array" count="1536">1 1 0.96875 0.5 1 0.5 0.96875 1 0.9375 0.5 0.96875 0.5 0.9375 1 0.90625 0.5 0.9375 0.5 0.90625 1 0.875 0.5 0.90625 0.5 0.875 1 0.84375 0.5 0.875 0.5 0.84375 1 0.8125 0.5 0.84375 0.5 0.8125 1 0.78125 0.5 0.8125 0.5 0.78125 1 0.75 0.5 0.78125 0.5 0.75 1 0.71875 0.5 0.75 0.5 0.71875 1 0.6875 0.5 0.71875 0.5 0.6875 1 0.65625 0.5 0.6875 0.5 0.65625 1 0.625 0.5 0.65625 0.5 0.625 1 0.59375 0.5 0.625 0.5 0.59375 1 0.5625 0.5 0.59375 0.5 0.5625 1 0.53125 0.5 0.5625 0.5 0.53125 1 0.5 0.5 0.53125 0.5 0.5 1 0.46875 0.5 0.5 0.5 0.46875 1 0.4375 0.5 0.46875 0.5 0.4375 1 0.40625 0.5 0.4375 0.5 0.40625 1 0.375 0.5 0.40625 0.5 0.375 1 0.34375 0.5 0.375 0.5 0.34375 1 0.3125 0.5 0.34375 0.5 0.3125 1 0.28125 0.5 0.3125 0.5 0.28125 1 0.25 0.5 0.28125 0.5 0.25 1 0.21875 0.5 0.25 0.5 0.21875 1 0.1875 0.5 0.21875 0.5 0.1875 1 0.15625 0.5 0.1875 0.5 0.15625 1 0.125 0.5 0.15625 0.5 0.125 1 0.09375 0.5 0.125 0.5 0.09375 1 0.0625 0.5 0.09375 0.5 0.07365465 0.6056941 0.1541917 0.584073 0.1931385 0.6535882 0.870512 0.2905079 0.7838521 0.356562 0.7567496 0.286641 0.0625 1 0.03125 0.5 0.0625 0.5 0.03125 1 0 0.5 0.03125 0.5 0.0964998 0.2920129 0.1771997 0.3336103 0.1497414 0.3975378 0.8228 0.6663897 0.8502585 0.6024622 0.9378231 0.6280778 0.96875 1 1 0.5 0.96875 0.5 0.96875 0.5 0.9375 1 0.96875 1 0.9375 0.5 0.90625 1 0.9375 1 0.90625 0.5 0.875 1 0.90625 1 0.875 1 0.84375 0.5 0.84375 1 0.84375 1 0.8125 0.5 0.8125 1 0.8125 1 0.78125 0.5 0.78125 1 0.78125 1 0.75 0.5 0.75 1 0.75 1 0.71875 0.5 0.71875 1 0.71875 1 0.6875 0.5 0.6875 1 0.6875 1 0.65625 0.5 0.65625 1 0.625 0.5 0.65625 1 0.65625 0.5 0.625 1 0.59375 0.5 0.59375 1 0.59375 1 0.5625 0.5 0.5625 1 0.5625 1 0.53125 0.5 0.53125 1 0.53125 1 0.5 0.5 0.5 1 0.5 1 0.46875 0.5 0.46875 1 0.4375 0.5 0.46875 1 0.46875 0.5 0.4375 1 0.40625 0.5 0.40625 1 0.375 0.5 0.40625 1 0.40625 0.5 0.375 0.5 0.34375 1 0.375 1 0.3125 1 0.34375 0.5 0.3125 0.5 0.3125 0.5 0.28125 1 0.3125 1 0.28125 0.5 0.25 1 0.28125 1 0.21875 1 0.25 0.5 0.21875 0.5 0.21875 0.5 0.1875 1 0.21875 1 0.1875 0.5 0.15625 1 0.1875 1 0.15625 0.5 0.125 1 0.15625 1 0.125 0.5 0.09375 1 0.125 1 0.0625 1 0.09375 0.5 0.0625 0.5 0.03125 1 0.0625 0.5 0.03125 0.5 0 0.5 0.03125 1 0.03125 0.5 1 1 0.96875 1 0.96875 0.5 0.96875 1 0.9375 1 0.9375 0.5 0.9375 1 0.90625 1 0.90625 0.5 0.90625 1 0.875 1 0.875 0.5 0.875 1 0.84375 1 0.84375 0.5 0.84375 1 0.8125 1 0.8125 0.5 0.8125 1 0.78125 1 0.78125 0.5 0.78125 1 0.75 1 0.75 0.5 0.75 1 0.71875 1 0.71875 0.5 0.71875 1 0.6875 1 0.6875 0.5 0.6875 1 0.65625 1 0.65625 0.5 0.65625 1 0.625 1 0.625 0.5 0.625 1 0.59375 1 0.59375 0.5 0.59375 1 0.5625 1 0.5625 0.5 0.5625 1 0.53125 1 0.53125 0.5 0.53125 1 0.5 1 0.5 0.5 0.5 1 0.46875 1 0.46875 0.5 0.46875 1 0.4375 1 0.4375 0.5 0.4375 1 0.40625 1 0.40625 0.5 0.40625 1 0.375 1 0.375 0.5 0.375 1 0.34375 1 0.34375 0.5 0.34375 1 0.3125 1 0.3125 0.5 0.3125 1 0.28125 1 0.28125 0.5 0.28125 1 0.25 1 0.25 0.5 0.25 1 0.21875 1 0.21875 0.5 0.21875 1 0.1875 1 0.1875 0.5 0.1875 1 0.15625 1 0.15625 0.5 0.15625 1 0.125 1 0.125 0.5 0.125 1 0.09375 1 0.09375 0.5 0.09375 1 0.0625 1 0.0625 0.5 0.2651322 0.772177 0.3142675 0.8166869 0.2730067 0.8964812 0.2730067 0.8964812 0.2115723 0.8408837 0.2651322 0.772177 0.2115723 0.8408837 0.1409056 0.7720478 0.2242289 0.7171056 0.1409056 0.7720478 0.1000359 0.6926294 0.1931385 0.6535882 0.1000359 0.6926294 0.07365465 0.6056941 0.1931385 0.6535882 0.07365465 0.6056941 0.06279557 0.5146073 0.145479 0.511245 0.06279557 0.5146073 0.06788748 0.4229097 0.149488 0.4379253 0.06788748 0.4229097 0.08873611 0.3341954 0.149488 0.4379253 0.08873611 0.3341954 0.1244779 0.2520087 0.1843303 0.3669499 0.149488 0.4379253 0.08873611 0.3341954 0.1843303 0.3669499 0.1244779 0.2520087 0.2113809 0.3010667 0.1843303 0.3669499 0.06279557 0.5146073 0.149488 0.4379253 0.145479 0.511245 0.2115723 0.8408837 0.2242289 0.7171056 0.2651322 0.772177 0.1931385 0.6535882 0.2242289 0.7171056 0.1409056 0.7720478 0.07365465 0.6056941 0.145479 0.511245 0.1541917 0.584073 0.2485863 0.242751 0.2113809 0.3010667 0.1244779 0.2520087 0.1244779 0.2520087 0.1914277 0.1795927 0.2485863 0.242751 0.1914277 0.1795927 0.2485443 0.1196693 0.2944211 0.1940454 0.2485443 0.1196693 0.3133512 0.07407605 0.3470083 0.1563071 0.3133512 0.07407605 0.3827112 0.04358559 0.3470083 0.1563071 0.3827112 0.04358559 0.459676 0.02535402 0.4662346 0.1166889 0.459676 0.02535402 0.5381487 0.02535402 0.5281459 0.1159395 0.5381487 0.02535402 0.6151134 0.04358571 0.5281459 0.1159395 0.6151134 0.04358571 0.6739252 0.08312737 0.5869242 0.1280557 0.5281459 0.1159395 0.6151134 0.04358571 0.5869242 0.1280557 0.6739252 0.08312737 0.7242296 0.1264516 0.6843097 0.1892041 0.7242296 0.1264516 0.7696743 0.1727718 0.6843097 0.1892041 0.7696743 0.1727718 0.8162737 0.2246463 0.7229139 0.23228 0.8162737 0.2246463 0.870512 0.2905079 0.7567496 0.286641 0.7229139 0.23228 0.8162737 0.2246463 0.7567496 0.286641 0.870512 0.2905079 0.8972852 0.4530468 0.7981221 0.4506686 0.8972852 0.4530468 0.8972852 0.5464993 0.7994121 0.5365556 0.8972852 0.5464993 0.8685838 0.6724247 0.7994121 0.5365556 0.8685838 0.6724247 0.8211727 0.7555032 0.7830243 0.6221708 0.7994121 0.5365556 0.8685838 0.6724247 0.7830243 0.6221708 0.8211727 0.7555032 0.7683205 0.8242462 0.7125194 0.7545209 0.7683205 0.8242462 0.7086603 0.8811882 0.6647118 0.8030778 0.7086603 0.8811882 0.6420024 0.9250609 0.6106793 0.8395071 0.6420024 0.9250609 0.5694995 0.95377 0.6106793 0.8395071 0.5694995 0.95377 0.4935222 0.9657396 0.4909398 0.8724167 0.4935222 0.9657396 0.416803 0.9600653 0.4293818 0.8677412 0.416803 0.9600653 0.3423242 0.93671 0.4293818 0.8677412 0.3423242 0.93671 0.2730067 0.8964812 0.3697355 0.8489388 0.4293818 0.8677412 0.3423242 0.93671 0.3697355 0.8489388 0.2730067 0.8964812 0.3142675 0.8166869 0.3697355 0.8489388 0.4935222 0.9657396 0.4293818 0.8677412 0.4909398 0.8724167 0.7683205 0.8242462 0.6647118 0.8030778 0.7125194 0.7545209 0.8972852 0.4530468 0.7994121 0.5365556 0.7981221 0.4506686 0.6843097 0.1892041 0.7696743 0.1727718 0.7229139 0.23228 0.459676 0.02535402 0.5281459 0.1159395 0.4662346 0.1166889 0.1914277 0.1795927 0.2944211 0.1940454 0.2485863 0.242751 0.3470083 0.1563071 0.2944211 0.1940454 0.2485443 0.1196693 0.4047777 0.130565 0.3470083 0.1563071 0.3827112 0.04358559 0.5694995 0.95377 0.4909398 0.8724167 0.5521013 0.8628574 0.5694995 0.95377 0.5521013 0.8628574 0.6106793 0.8395071 0.4662346 0.1166889 0.4047777 0.130565 0.3827112 0.04358559 0.7086603 0.8811882 0.6106793 0.8395071 0.6647118 0.8030778 0.8211727 0.7555032 0.7125194 0.7545209 0.7525511 0.6943868 0.6387269 0.1538263 0.5869242 0.1280557 0.6739252 0.08312737 0.6843097 0.1892041 0.6387269 0.1538263 0.6739252 0.08312737 0.8211727 0.7555032 0.7525511 0.6943868 0.7830243 0.6221708 0.870512 0.2905079 0.7981221 0.4506686 0.7838521 0.356562 0.0625 1 0.03125 1 0.03125 0.5 0.03125 1 0 1 0 0.5 0.5358762 0.8512723 0.6062499 0.837773 0.6328123 0.9222162 0.6328123 0.9222162 0.5448454 0.9390904 0.5358762 0.8512723 0.5448454 0.9390904 0.455155 0.9390904 0.4641239 0.8512723 0.455155 0.9390904 0.367188 0.9222164 0.3937503 0.8377732 0.367188 0.9222164 0.284325 0.8891169 0.3937503 0.8377732 0.284325 0.8891169 0.20975 0.8410639 0.2678 0.7728512 0.20975 0.8410639 0.1463293 0.779904 0.2170635 0.7239232 0.1463293 0.779904 0.09649991 0.7079875 0.2170635 0.7239232 0.09649991 0.7079875 0.06217688 0.6280782 0.1771999 0.66639 0.2170635 0.7239232 0.09649991 0.7079875 0.1771999 0.66639 0.06217688 0.6280782 0.0446791 0.5432469 0.1357433 0.5345975 0.0446791 0.5432469 0.0446791 0.4567536 0.1357433 0.5345975 0.0446791 0.4567536 0.06217676 0.3719222 0.1357433 0.4654029 0.06217676 0.3719222 0.0964998 0.2920129 0.1497414 0.3975378 0.1357433 0.4654029 0.06217676 0.3719222 0.1497414 0.3975378 0.0964998 0.2920129 0.1463291 0.2200964 0.2170632 0.2760771 0.1463291 0.2200964 0.2097496 0.1589363 0.2677998 0.2271491 0.2097496 0.1589363 0.2843245 0.1108832 0.2677998 0.2271491 0.2843245 0.1108832 0.3671875 0.0777837 0.3274595 0.1887066 0.2677998 0.2271491 0.2843245 0.1108832 0.3274595 0.1887066 0.3671875 0.0777837 0.4551545 0.06090962 0.4641236 0.1487276 0.4551545 0.06090962 0.5448449 0.06090962 0.5358759 0.1487277 0.5448449 0.06090962 0.632812 0.07778352 0.6062496 0.1622269 0.632812 0.07778352 0.7156751 0.1108831 0.6062496 0.1622269 0.7156751 0.1108831 0.79025 0.1589361 0.7321999 0.2271488 0.79025 0.1589361 0.8536706 0.220096 0.7829365 0.2760768 0.8536706 0.220096 0.9035 0.2920125 0.7829365 0.2760768 0.9035 0.2920125 0.9378231 0.3719219 0.8227999 0.33361 0.7829365 0.2760768 0.9035 0.2920125 0.8227999 0.33361 0.9378231 0.3719219 0.8502584 0.3975375 0.8227999 0.33361 0.79025 0.1589361 0.7829365 0.2760768 0.7321999 0.2271488 0.4551545 0.06090962 0.5358759 0.1487277 0.4641236 0.1487276 0.1463291 0.2200964 0.2677998 0.2271491 0.2170632 0.2760771 0.1357433 0.5345975 0.0446791 0.4567536 0.1357433 0.4654029 0.20975 0.8410639 0.2170635 0.7239232 0.2678 0.7728512 0.5448454 0.9390904 0.4641239 0.8512723 0.5358762 0.8512723 0.3937503 0.8377732 0.4641239 0.8512723 0.455155 0.9390904 0.3274598 0.8112936 0.3937503 0.8377732 0.284325 0.8891169 0.7156751 0.1108831 0.7321999 0.2271488 0.67254 0.1887064 0.7156751 0.1108831 0.67254 0.1887064 0.6062496 0.1622269 0.2678 0.7728512 0.3274598 0.8112936 0.284325 0.8891169 0.5448449 0.06090962 0.6062496 0.1622269 0.5358759 0.1487277 0.3671875 0.0777837 0.4641236 0.1487276 0.39375 0.1622269 0.1497415 0.6024625 0.1771999 0.66639 0.06217688 0.6280782 0.1357433 0.5345975 0.1497415 0.6024625 0.06217688 0.6280782 0.3671875 0.0777837 0.39375 0.1622269 0.3274595 0.1887066 0.0964998 0.2920129 0.2170632 0.2760771 0.1771997 0.3336103 0.8502584 0.3975375 0.9378231 0.3719219 0.9553208 0.4567532 0.9553208 0.4567532 0.9553208 0.5432465 0.8642566 0.4654026 0.9553208 0.5432465 0.9378231 0.6280778 0.8642566 0.5345972 0.8642566 0.4654026 0.9553208 0.5432465 0.8642566 0.5345972 0.9378231 0.6280778 0.9035001 0.7079871 0.8228 0.6663897 0.9035001 0.7079871 0.8536708 0.7799037 0.7829367 0.723923 0.8536708 0.7799037 0.7902502 0.8410636 0.7829367 0.723923 0.7902502 0.8410636 0.7156754 0.8891167 0.7322002 0.7728509 0.7829367 0.723923 0.7902502 0.8410636 0.7322002 0.7728509 0.7156754 0.8891167 0.6328123 0.9222162 0.6725403 0.8112934 0.6328123 0.9222162 0.6062499 0.837773 0.6725403 0.8112934 0.9035001 0.7079871 0.7829367 0.723923 0.8228 0.6663897 0.8502584 0.3975375 0.9553208 0.4567532 0.8642566 0.4654026 0.7156754 0.8891167 0.6725403 0.8112934 0.7322002 0.7728509 0.8502585 0.6024622 0.8642566 0.5345972 0.9378231 0.6280778 0.96875 1 1 1 1 0.5 0.96875 0.5 0.9375 0.5 0.9375 1 0.9375 0.5 0.90625 0.5 0.90625 1 0.90625 0.5 0.875 0.5 0.875 1 0.875 1 0.875 0.5 0.84375 0.5 0.84375 1 0.84375 0.5 0.8125 0.5 0.8125 1 0.8125 0.5 0.78125 0.5 0.78125 1 0.78125 0.5 0.75 0.5 0.75 1 0.75 0.5 0.71875 0.5 0.71875 1 0.71875 0.5 0.6875 0.5 0.6875 1 0.6875 0.5 0.65625 0.5 0.625 0.5 0.625 1 0.65625 1 0.625 1 0.625 0.5 0.59375 0.5 0.59375 1 0.59375 0.5 0.5625 0.5 0.5625 1 0.5625 0.5 0.53125 0.5 0.53125 1 0.53125 0.5 0.5 0.5 0.5 1 0.5 0.5 0.46875 0.5 0.4375 0.5 0.4375 1 0.46875 1 0.4375 1 0.4375 0.5 0.40625 0.5 0.375 0.5 0.375 1 0.40625 1 0.375 0.5 0.34375 0.5 0.34375 1 0.3125 1 0.34375 1 0.34375 0.5 0.3125 0.5 0.28125 0.5 0.28125 1 0.28125 0.5 0.25 0.5 0.25 1 0.21875 1 0.25 1 0.25 0.5 0.21875 0.5 0.1875 0.5 0.1875 1 0.1875 0.5 0.15625 0.5 0.15625 1 0.15625 0.5 0.125 0.5 0.125 1 0.125 0.5 0.09375 0.5 0.09375 1 0.0625 1 0.09375 1 0.09375 0.5 0.03125 1 0.0625 1 0.0625 0.5 0 0.5 0 1 0.03125 1</float_array>
          <technique_common>
            <accessor source="#Cylinder-mesh-map-0-array" count="768" stride="2">
              <param name="S" type="float"/>
              <param name="T" type="float"/>
            </accessor>
          </technique_common>
        </source>
        <vertices id="Cylinder-mesh-vertices">
          <input semantic="POSITION" source="#Cylinder-mesh-positions"/>
        </vertices>
        <triangles material="Material_001-material" count="256">
          <input semantic="VERTEX" source="#Cylinder-mesh-vertices" offset="0"/>
          <input semantic="NORMAL" source="#Cylinder-mesh-normals" offset="1"/>
          <input semantic="TEXCOORD" source="#Cylinder-mesh-map-0" offset="2" set="0"/>
          <p>3 0 0 4 0 1 1 0 2 7 1 3 8 1 4 4 1 5 10 2 6 12 2 7 8 2 8 14 3 9 17 3 10 12 3 11 19 4 12 21 4 13 17 4 14 23 5 15 24 5 16 21 5 17 26 6 18 28 6 19 24 6 20 30 7 21 32 7 22 28 7 23 34 8 24 37 8 25 32 8 26 38 9 27 40 9 28 37 9 29 42 10 30 45 10 31 40 10 32 46 11 33 49 11 34 45 11 35 50 12 36 52 12 37 49 12 38 55 13 39 57 13 40 52 13 41 59 14 42 61 14 43 57 14 44 63 15 45 65 15 46 61 15 47 66 16 48 69 16 49 65 16 50 71 17 51 72 17 52 69 17 53 75 18 54 77 18 55 72 18 56 79 19 57 80 19 58 77 19 59 82 20 60 84 20 61 80 20 62 86 21 63 89 21 64 84 21 65 90 22 66 93 22 67 89 22 68 95 23 69 96 23 70 93 23 71 99 24 72 100 24 73 96 24 74 103 25 75 105 25 76 100 25 77 107 26 78 108 26 79 105 26 80 110 27 81 113 27 82 108 27 83 115 28 84 116 28 85 113 28 86 118 29 87 121 29 88 116 29 89 107 30 90 106 30 91 111 30 92 42 31 93 43 31 94 47 31 95 123 32 96 125 32 97 121 32 98 126 33 99 1 33 100 125 33 101 12 34 102 13 34 103 9 34 104 76 35 105 73 35 106 72 35 107 6 36 108 0 36 109 5 36 110 5 37 111 11 37 112 6 37 113 9 38 114 15 38 115 11 38 116 13 39 117 18 39 118 15 39 119 18 40 120 20 40 121 22 40 122 22 41 123 25 41 124 27 41 125 27 42 126 29 42 127 31 42 128 31 43 129 33 43 130 35 43 131 35 44 132 36 44 133 39 44 134 39 45 135 41 45 136 43 45 137 43 46 138 44 46 139 47 46 140 48 47 141 47 47 142 44 47 143 51 48 144 53 48 145 54 48 146 54 49 147 56 49 148 58 49 149 58 50 150 60 50 151 62 50 152 62 51 153 64 51 154 67 51 155 67 52 156 68 52 157 70 52 158 73 53 159 70 53 160 68 53 161 74 54 162 76 54 163 78 54 164 81 55 165 78 55 166 76 55 167 81 56 168 87 56 169 83 56 170 91 57 171 85 57 172 88 57 173 88 58 174 94 58 175 91 58 176 92 59 177 98 59 178 94 59 179 102 60 180 97 60 181 101 60 182 101 61 183 106 61 184 102 61 185 104 62 186 111 62 187 106 62 188 109 63 189 114 63 190 111 63 191 112 64 192 119 64 193 114 64 194 122 65 195 117 65 196 120 65 197 127 66 198 120 66 199 124 66 200 0 67 201 127 67 202 124 67 203 3 68 204 7 68 205 4 68 206 7 69 207 10 69 208 8 69 209 10 70 210 14 70 211 12 70 212 14 71 213 19 71 214 17 71 215 19 72 216 23 72 217 21 72 218 23 73 219 26 73 220 24 73 221 26 74 222 30 74 223 28 74 224 30 75 225 34 75 226 32 75 227 34 76 228 38 76 229 37 76 230 38 77 231 42 77 232 40 77 233 42 78 234 46 78 235 45 78 236 46 79 237 50 79 238 49 79 239 50 80 240 55 80 241 52 80 242 55 81 243 59 81 244 57 81 245 59 82 246 63 82 247 61 82 248 63 83 249 66 83 250 65 83 251 66 84 252 71 84 253 69 84 254 71 85 255 75 85 256 72 85 257 75 86 258 79 86 259 77 86 260 79 87 261 82 87 262 80 87 263 82 88 264 86 88 265 84 88 266 86 89 267 90 89 268 89 89 269 90 90 270 95 90 271 93 90 272 95 91 273 99 91 274 96 91 275 99 92 276 103 92 277 100 92 278 103 93 279 107 93 280 105 93 281 107 94 282 110 94 283 108 94 284 110 95 285 115 95 286 113 95 287 115 96 288 118 96 289 116 96 290 118 97 291 123 97 292 121 97 293 119 98 294 122 98 295 123 98 296 123 99 297 118 99 298 119 99 299 118 100 300 115 100 301 114 100 302 115 101 303 110 101 304 111 101 305 110 102 306 107 102 307 111 102 308 107 103 309 103 103 310 102 103 311 103 104 312 99 104 313 98 104 314 99 105 315 95 105 316 98 105 317 95 106 318 90 106 319 94 106 320 98 107 321 95 107 322 94 107 323 90 108 324 91 108 325 94 108 326 103 109 327 98 109 328 102 109 329 118 110 330 114 110 331 119 110 332 111 111 333 114 111 334 115 111 335 107 112 336 102 112 337 106 112 338 87 113 339 91 113 340 90 113 341 90 114 342 86 114 343 87 114 344 86 115 345 82 115 346 83 115 347 82 116 348 79 116 349 78 116 350 79 117 351 75 117 352 78 117 353 75 118 354 71 118 355 70 118 356 71 119 357 66 119 358 67 119 359 66 120 360 63 120 361 67 120 362 63 121 363 59 121 364 62 121 365 67 122 366 63 122 367 62 122 368 59 123 369 55 123 370 54 123 371 55 124 372 50 124 373 54 124 374 50 125 375 46 125 376 51 125 377 46 126 378 42 126 379 47 126 380 51 127 381 46 127 382 47 127 383 42 128 384 38 128 385 39 128 386 38 129 387 34 129 388 35 129 389 34 130 390 30 130 391 35 130 392 30 131 393 26 131 394 31 131 395 35 132 396 30 132 397 31 132 398 26 133 399 23 133 400 22 133 401 23 134 402 19 134 403 18 134 404 19 135 405 14 135 406 15 135 407 14 136 408 10 136 409 15 136 410 10 137 411 7 137 412 6 137 413 7 138 414 3 138 415 2 138 416 3 139 417 126 139 418 2 139 419 126 140 420 123 140 421 127 140 422 2 141 423 126 141 424 127 141 425 123 142 426 122 142 427 127 142 428 7 143 429 2 143 430 6 143 431 23 144 432 18 144 433 22 144 434 38 145 435 35 145 436 39 145 437 54 146 438 50 146 439 51 146 440 71 147 441 67 147 442 70 147 443 86 148 444 83 148 445 87 148 446 78 149 447 83 149 448 82 149 449 74 150 450 78 150 451 75 150 452 10 151 453 6 151 454 11 151 455 10 152 456 11 152 457 15 152 458 70 153 459 74 153 460 75 153 461 19 154 462 15 154 463 18 154 464 26 155 465 22 155 466 27 155 467 58 156 468 62 156 469 59 156 470 54 157 471 58 157 472 59 157 473 26 158 474 27 158 475 31 158 476 42 159 477 39 159 478 43 159 479 123 160 480 126 160 481 125 160 482 126 161 483 3 161 484 1 161 485 97 162 486 92 162 487 93 162 488 93 163 489 96 163 490 97 163 491 96 164 492 100 164 493 101 164 494 100 165 495 105 165 496 104 165 497 105 166 498 108 166 499 104 166 500 108 167 501 113 167 502 112 167 503 113 168 504 116 168 505 117 168 506 116 169 507 121 169 508 117 169 509 121 170 510 125 170 511 120 170 512 117 171 513 121 171 514 120 171 515 125 172 516 1 172 517 0 172 518 1 173 519 4 173 520 0 173 521 4 174 522 8 174 523 5 174 524 8 175 525 12 175 526 9 175 527 5 176 528 8 176 529 9 176 530 12 177 531 17 177 532 16 177 533 17 178 534 21 178 535 20 178 536 21 179 537 24 179 538 20 179 539 24 180 540 28 180 541 25 180 542 20 181 543 24 181 544 25 181 545 28 182 546 32 182 547 33 182 548 32 183 549 37 183 550 36 183 551 37 184 552 40 184 553 41 184 554 40 185 555 45 185 556 41 185 557 45 186 558 49 186 559 48 186 560 49 187 561 52 187 562 53 187 563 52 188 564 57 188 565 53 188 566 57 189 567 61 189 568 56 189 569 53 190 570 57 190 571 56 190 572 61 191 573 60 191 574 56 191 575 49 192 576 53 192 577 48 192 578 32 193 579 36 193 580 33 193 581 17 194 582 20 194 583 16 194 584 0 195 585 4 195 586 5 195 587 113 196 588 117 196 589 112 196 590 96 197 591 101 197 592 97 197 593 104 198 594 101 198 595 100 198 596 109 199 597 104 199 598 108 199 599 45 200 600 48 200 601 44 200 602 45 201 603 44 201 604 41 201 605 112 202 606 109 202 607 108 202 608 37 203 609 41 203 610 36 203 611 28 204 612 33 204 613 29 204 614 124 205 615 120 205 616 125 205 617 0 206 618 124 206 619 125 206 620 28 207 621 29 207 622 25 207 623 12 208 624 16 208 625 13 208 626 60 209 627 61 209 628 65 209 629 65 210 630 69 210 631 64 210 632 69 211 633 72 211 634 68 211 635 64 212 636 69 212 637 68 212 638 72 213 639 77 213 640 76 213 641 77 214 642 80 214 643 81 214 644 80 215 645 84 215 646 81 215 647 84 216 648 89 216 649 85 216 650 81 217 651 84 217 652 85 217 653 89 218 654 93 218 655 88 218 656 93 219 657 92 219 658 88 219 659 77 220 660 81 220 661 76 220 662 60 221 663 65 221 664 64 221 665 89 222 666 88 222 667 85 222 668 73 223 669 68 223 670 72 223 671 6 224 672 2 224 673 0 224 674 5 225 675 9 225 676 11 225 677 9 226 678 13 226 679 15 226 680 13 227 681 16 227 682 18 227 683 18 228 684 16 228 685 20 228 686 22 229 687 20 229 688 25 229 689 27 230 690 25 230 691 29 230 692 31 231 693 29 231 694 33 231 695 35 232 696 33 232 697 36 232 698 39 233 699 36 233 700 41 233 701 43 234 702 41 234 703 44 234 704 48 235 705 51 235 706 47 235 707 51 236 708 48 236 709 53 236 710 54 237 711 53 237 712 56 237 713 58 238 714 56 238 715 60 238 716 62 239 717 60 239 718 64 239 719 67 240 720 64 240 721 68 240 722 73 241 723 74 241 724 70 241 725 74 242 726 73 242 727 76 242 728 81 243 729 83 243 730 78 243 731 81 244 732 85 244 733 87 244 734 91 245 735 87 245 736 85 245 737 88 246 738 92 246 739 94 246 740 92 247 741 97 247 742 98 247 743 102 248 744 98 248 745 97 248 746 101 249 747 104 249 748 106 249 749 104 250 750 109 250 751 111 250 752 109 251 753 112 251 754 114 251 755 112 252 756 117 252 757 119 252 758 122 253 759 119 253 760 117 253 761 127 254 762 122 254 763 120 254 764 0 255 765 2 255 766 127 255 767</p>
        </triangles>
      </mesh>
    </geometry>
  </library_geometries>
  <library_visual_scenes>
    <visual_scene id="Scene" name="Scene">
      <node id="Cylinder" name="Cylinder" type="NODE">
        <matrix sid="transform">-4.37114e-8 0 0.2 0 0 1 0 0 -1 0 -8.74228e-9 0 0 0 0 1</matrix>
        <instance_geometry url="#Cylinder-mesh" name="Cylinder">
          <bind_material>
            <technique_common>
              <instance_material symbol="Material_001-material" target="#Material_001-material">
                <bind_vertex_input semantic="UVMap" input_semantic="TEXCOORD" input_set="0"/>
              </instance_material>
            </technique_common>
          </bind_material>
        </instance_geometry>
      </node>
      <node id="Camera" name="Camera" type="NODE">
        <matrix sid="transform">0.6859207 -0.3240135 0.6515582 7.358891 0.7276763 0.3054208 -0.6141704 -6.925791 0 0.8953956 0.4452714 4.958309 0 0 0 1</matrix>
        <instance_camera url="#Camera-camera"/>
      </node>
      <node id="Light" name="Light" type="NODE">
        <matrix sid="transform">-0.2908646 -0.7711008 0.5663932 4.076245 0.9551712 -0.1998834 0.2183912 1.005454 -0.05518906 0.6045247 0.7946723 5.903862 0 0 0 1</matrix>
        <instance_light url="#Light-light"/>
      </node>
    </visual_scene>
  </library_visual_scenes>
  <scene>
    <instance_visual_scene url="#Scene"/>
  </scene>
</COLLADA>